<svg xmlns="http://www.w3.org/2000/svg" version="1.1">
  <rect x="20.00" y="20.00" width="80.00" height="50.00" fill="lightgray" stroke="black" stroke-width="1.00" fill-opacity="0.5" />
  <text x="23.00" y="32.00" font-size="8" fill="black">cep001</text>
  <rect x="120.00" y="20.00" width="80.00" height="50.00" fill="lightgray" stroke="black" stroke-width="1.00" fill-opacity="0.5" />
  <text x="123.00" y="32.00" font-size="8" fill="black">cep002</text>
  <rect x="220.00" y="20.00" width="80.00" height="50.00" fill="lightgray" stroke="black" stroke-width="1.00" fill-opacity="0.5" />
  <text x="223.00" y="32.00" font-size="8" fill="black">cep003</text>
  <rect x="320.00" y="20.00" width="80.00" height="50.00" fill="lightgray" stroke="black" stroke-width="1.00" fill-opacity="0.5" />
  <text x="323.00" y="32.00" font-size="8" fill="black">cep004</text>
  <rect x="20.00" y="100.00" width="80.00" height="50.00" fill="lightblue" stroke="navy" stroke-width="1.50" fill-opacity="0.5" />
  <text x="23.00" y="112.00" font-size="8" fill="black">cep005</text>
  <rect x="120.00" y="100.00" width="80.00" height="50.00" fill="lightblue" stroke="navy" stroke-width="1.50" fill-opacity="0.5" />
  <text x="123.00" y="112.00" font-size="8" fill="black">cep006</text>
  <rect x="220.00" y="100.00" width="80.00" height="50.00" fill="lightblue" stroke="navy" stroke-width="1.50" fill-opacity="0.5" />
  <text x="223.00" y="112.00" font-size="8" fill="black">cep007</text>
  <rect x="320.00" y="100.00" width="80.00" height="50.00" fill="lightblue" stroke="navy" stroke-width="1.50" fill-opacity="0.5" />
  <text x="323.00" y="112.00" font-size="8" fill="black">cep008</text>
  <rect x="20.00" y="180.00" width="80.00" height="50.00" fill="lightyellow" stroke="orange" stroke-width="1.50" fill-opacity="0.5" />
  <text x="23.00" y="192.00" font-size="8" fill="black">cep009</text>
  <rect x="120.00" y="180.00" width="80.00" height="50.00" fill="lightyellow" stroke="orange" stroke-width="1.50" fill-opacity="0.5" />
  <text x="123.00" y="192.00" font-size="8" fill="black">cep010</text>
  <rect x="220.00" y="180.00" width="80.00" height="50.00" fill="lightyellow" stroke="orange" stroke-width="1.50" fill-opacity="0.5" />
  <text x="223.00" y="192.00" font-size="8" fill="black">cep011</text>
  <rect x="320.00" y="180.00" width="80.00" height="50.00" fill="lightyellow" stroke="orange" stroke-width="1.50" fill-opacity="0.5" />
  <text x="323.00" y="192.00" font-size="8" fill="black">cep012</text>
  <rect x="20.00" y="260.00" width="80.00" height="50.00" fill="lightgreen" stroke="darkgreen" stroke-width="2.00" fill-opacity="0.5" />
  <text x="23.00" y="272.00" font-size="8" fill="black">cep013</text>
  <rect x="120.00" y="260.00" width="80.00" height="50.00" fill="lightgreen" stroke="darkgreen" stroke-width="2.00" fill-opacity="0.5" />
  <text x="123.00" y="272.00" font-size="8" fill="black">cep014</text>
  <rect x="220.00" y="260.00" width="80.00" height="50.00" fill="lightgreen" stroke="darkgreen" stroke-width="2.00" fill-opacity="0.5" />
  <text x="223.00" y="272.00" font-size="8" fill="black">cep015</text>
</svg>
